<svg width="88" height="27" viewBox="0 0 88 27" fill="none" xmlns="http://www.w3.org/2000/svg">
<path d="M85.204 8.408C86.421 8.408 87.408 7.4212 87.408 6.204C87.408 4.98676 86.421 4 85.204 4C83.987 4 83 4.98676 83 6.204C83 7.4212 83.987 8.408 85.204 8.408Z" fill="#394149"/>
<path d="M20.4191 11.703C20.0401 12.0843 19.7498 12.5445 19.569 13.0507C19.3882 13.557 19.3213 14.0969 19.373 14.632L19.355 14.614C19.4082 15.2439 19.3232 15.8777 19.1061 16.4714C18.889 17.065 18.5451 17.6041 18.0982 18.0511C17.6512 18.498 17.112 18.8421 16.5183 19.0591C15.9247 19.2762 15.2908 19.3612 14.661 19.308L14.6791 19.326C13.9257 19.2559 13.1689 19.4198 12.512 19.7955C11.8552 20.1712 11.3302 20.7403 11.0087 21.4253C10.6872 22.1103 10.5847 22.8777 10.7153 23.6231C10.846 24.3684 11.2033 25.0553 11.7386 25.5901C12.2739 26.1249 12.9611 26.4816 13.7065 26.6115C14.452 26.7415 15.2193 26.6383 15.904 26.3162C16.5887 25.994 17.1573 25.4686 17.5324 24.8114C17.9075 24.1542 18.0708 23.3974 18 22.644L18.019 22.662C17.9658 22.0322 18.0507 21.3983 18.2678 20.8046C18.4849 20.211 18.829 19.6719 19.2759 19.2249C19.7229 18.778 20.262 18.4339 20.8556 18.2169C21.4493 17.9998 22.0831 17.9148 22.713 17.968L22.694 17.95C23.3094 18.0053 23.929 17.9044 24.4951 17.6566C25.0611 17.4088 25.5554 17.0221 25.9322 16.5324C26.309 16.0427 26.5563 15.4657 26.6507 14.8551C26.7452 14.2444 26.6839 13.6198 26.4727 13.039C26.2615 12.4583 25.9071 11.9403 25.4424 11.533C24.9777 11.1257 24.4178 10.8423 23.8144 10.7091C23.211 10.5759 22.5837 10.5971 21.9907 10.7708C21.3977 10.9446 20.8582 11.2652 20.4221 11.703H20.4191Z" fill="#3ED9EC"/>
<path d="M13.0419 16.968L13.0229 16.95C13.5582 17.0039 14.0988 16.9382 14.6057 16.7576C15.1125 16.577 15.5729 16.2861 15.9535 15.9058C16.334 15.5255 16.6254 15.0653 16.8063 14.5586C16.9873 14.0519 17.0534 13.5114 16.9999 12.976L17.0189 12.994C16.9657 12.3641 17.0507 11.7303 17.2677 11.1366C17.4848 10.543 17.8289 10.0039 18.2758 9.55687C18.7228 9.10997 19.2619 8.76587 19.8555 8.54887C20.4492 8.33173 21.083 8.2468 21.7129 8.29997L21.6939 8.28197C22.4474 8.35277 23.2043 8.18933 23.8615 7.81407C24.5188 7.43881 25.0442 6.86994 25.3662 6.18507C25.6882 5.50021 25.7911 4.73268 25.6609 3.98717C25.5307 3.24166 25.1737 2.55448 24.6385 2.01934C24.1034 1.48421 23.4162 1.12717 22.6707 0.996946C21.9252 0.866716 21.1577 0.969626 20.4728 1.29165C19.7879 1.61366 19.2191 2.13911 18.8438 2.79632C18.4685 3.45352 18.3051 4.21049 18.3759 4.96397L18.3579 4.94497C18.4112 5.57486 18.3264 6.2088 18.1094 6.80252C17.8924 7.39624 17.5483 7.93543 17.1014 8.38247C16.6544 8.82937 16.1152 9.17347 15.5215 9.39047C14.9277 9.60747 14.2938 9.69227 13.6639 9.63897L13.6819 9.65797C13.1466 9.60407 12.6059 9.66977 12.0991 9.85037C11.5923 10.0309 11.1319 10.3219 10.7513 10.7022C10.3707 11.0825 10.0794 11.5427 9.89841 12.0494C9.71751 12.5561 9.65141 13.0966 9.70491 13.632L9.68691 13.614C9.73991 14.2438 9.65481 14.8776 9.43771 15.4712C9.22051 16.0647 8.87651 16.6038 8.42961 17.0507C7.98267 17.4976 7.44363 17.8416 6.85007 18.0588C6.25651 18.2759 5.62272 18.361 4.99291 18.308L5.01091 18.326C4.25743 18.2552 3.50046 18.4186 2.84325 18.7939C2.18605 19.1692 1.6606 19.738 1.33859 20.4229C1.01657 21.1078 0.91365 21.8753 1.04388 22.6208C1.17411 23.3663 1.53115 24.0535 2.06628 24.5886C2.60142 25.1238 3.2886 25.4808 4.03411 25.611C4.77962 25.7412 5.54715 25.6383 6.23202 25.3163C6.91688 24.9943 7.48575 24.4689 7.86101 23.8117C8.23631 23.1544 8.39971 22.3975 8.32891 21.644L8.34791 21.662C8.29471 21.0321 8.37971 20.3983 8.59681 19.8046C8.81381 19.211 9.15791 18.6719 9.60481 18.2249C10.0518 17.778 10.5909 17.4339 11.1845 17.2169C11.7782 16.9998 12.412 16.9148 13.0419 16.968Z" fill="#154EEA"/>
<path d="M6.33997 14.961C6.71899 14.5798 7.00917 14.1196 7.18981 13.6133C7.37045 13.107 7.43709 12.567 7.38497 12.032L7.40396 12.05C7.35076 11.42 7.43572 10.7859 7.65293 10.1921C7.87014 9.59827 8.21437 9.05907 8.66157 8.61207C9.10877 8.16509 9.64807 7.8211 10.242 7.60415C10.8359 7.38719 11.47 7.30249 12.1 7.35597L12.081 7.33797C12.8342 7.40854 13.5909 7.24505 14.2478 6.86981C14.9047 6.49458 15.4298 5.92585 15.7517 5.2412C16.0735 4.55654 16.1763 3.78929 16.0461 3.04406C15.9159 2.29883 15.5589 1.61191 15.024 1.07697C14.4891 0.54203 13.8021 0.18511 13.0569 0.0548905C12.3117 -0.0753395 11.5444 0.0274805 10.8598 0.3493C10.1751 0.67112 9.60637 1.19629 9.23117 1.85319C8.85587 2.51009 8.69237 3.26675 8.76297 4.01997L8.74497 4.00197C8.79817 4.63182 8.71317 5.26569 8.49607 5.85933C8.27897 6.45297 7.93499 6.99208 7.48803 7.43904C7.04108 7.886 6.50196 8.23003 5.90832 8.44707C5.31468 8.66417 4.68082 8.74917 4.05097 8.69597L4.06897 8.71397C3.45354 8.65877 2.83413 8.75987 2.26815 9.00777C1.70217 9.25567 1.20792 9.64247 0.831207 10.1323C0.454497 10.622 0.207517 11.199 0.113137 11.8096C0.0187673 12.4203 0.0800573 13.0449 0.291327 13.6255C0.502597 14.2062 0.857027 14.7241 1.32176 15.1313C1.78649 15.5386 2.34649 15.8219 2.94987 15.9551C3.55324 16.0882 4.18047 16.0669 4.77344 15.8932C5.3664 15.7194 5.9059 15.3988 6.34196 14.961H6.33997Z" fill="#615DFF"/>
<path d="M37.865 7C39.225 7 40.313 7.39667 41.129 8.19C41.9564 8.972 42.37 9.95233 42.37 11.131C42.37 11.913 42.1717 12.6213 41.775 13.256C41.3784 13.8907 40.8344 14.3667 40.143 14.684L42.625 19.41H39.276L37.236 15.279H36.012V19.41H33.071V7H37.865ZM37.797 12.406C38.273 12.406 38.647 12.287 38.919 12.049C39.2024 11.811 39.344 11.505 39.344 11.131C39.344 10.7683 39.2024 10.468 38.919 10.23C38.647 9.992 38.273 9.873 37.797 9.873H36.012V12.406H37.797Z" fill="#394149"/>
<path d="M44.6781 11.335C45.6074 10.3943 46.7351 9.924 48.0611 9.924C49.3984 9.924 50.5317 10.3943 51.4611 11.335C52.3904 12.2757 52.8551 13.409 52.8551 14.735C52.8551 15.0183 52.8324 15.364 52.7871 15.772H46.2251C46.3611 16.146 46.6104 16.452 46.9731 16.69C47.3471 16.9167 47.7891 17.03 48.2991 17.03C49.1151 17.03 49.7497 16.8033 50.2031 16.35L52.3961 17.744C51.9541 18.2993 51.3534 18.747 50.5941 19.087C49.8461 19.4157 49.0811 19.58 48.2991 19.58C46.8371 19.58 45.6301 19.1153 44.6781 18.186C43.7374 17.2453 43.2671 16.095 43.2671 14.735C43.2671 13.409 43.7374 12.2757 44.6781 11.335ZM46.2421 13.613H49.9991C49.9084 13.2957 49.6874 13.0293 49.3361 12.814C48.9961 12.5873 48.5767 12.474 48.0781 12.474C47.5907 12.474 47.1827 12.5873 46.8541 12.814C46.5367 13.0293 46.3327 13.2957 46.2421 13.613Z" fill="#394149"/>
<path d="M55.2201 11.335C56.1607 10.3943 57.2941 9.924 58.6201 9.924C59.4134 9.924 60.1557 10.111 60.8471 10.485C61.5384 10.8477 62.1107 11.3407 62.5641 11.964L60.2861 13.477C59.8781 12.9783 59.3227 12.729 58.6201 12.729C58.0534 12.729 57.5717 12.9273 57.1751 13.324C56.7897 13.7093 56.5971 14.1797 56.5971 14.735C56.5971 15.3017 56.7897 15.7833 57.1751 16.18C57.5717 16.5767 58.0534 16.775 58.6201 16.775C59.3681 16.775 59.9404 16.486 60.3371 15.908L62.6151 17.438C62.1731 18.0953 61.6007 18.6167 60.8981 19.002C60.1954 19.3873 59.4361 19.58 58.6201 19.58C57.2827 19.58 56.1437 19.1097 55.2031 18.169C54.2737 17.217 53.8091 16.0723 53.8091 14.735C53.8091 13.409 54.2794 12.2757 55.2201 11.335Z" fill="#394149"/>
<path d="M64.8988 11.335C65.8394 10.3943 66.9728 9.924 68.2988 9.924C69.6248 9.924 70.7581 10.4 71.6988 11.352C72.6508 12.2927 73.1268 13.4203 73.1268 14.735C73.1268 16.0723 72.6508 17.217 71.6988 18.169C70.7581 19.1097 69.6248 19.58 68.2988 19.58C66.9614 19.58 65.8224 19.1097 64.8818 18.169C63.9524 17.217 63.4878 16.0723 63.4878 14.735C63.4878 13.409 63.9581 12.2757 64.8988 11.335ZM66.2758 14.735C66.2758 15.3017 66.4741 15.7833 66.8708 16.18C67.2561 16.5767 67.7321 16.775 68.2988 16.775C68.8654 16.775 69.3414 16.5767 69.7268 16.18C70.1234 15.7833 70.3218 15.3017 70.3218 14.735C70.3218 14.1797 70.1234 13.7093 69.7268 13.324C69.3414 12.9273 68.8654 12.729 68.2988 12.729C67.7321 12.729 67.2504 12.9273 66.8538 13.324C66.4684 13.7093 66.2758 14.1797 66.2758 14.735Z" fill="#394149"/>
<path d="M74.488 19.41V10.06H76.987L77.157 11.284C77.7463 10.3547 78.5623 9.89 79.605 9.89C80.727 9.89 81.611 10.281 82.257 11.063C82.903 11.8337 83.226 13.0237 83.226 14.633V19.41H80.472V14.633C80.472 13.9643 80.3133 13.46 79.996 13.12C79.69 12.7687 79.3103 12.593 78.857 12.593C78.4036 12.593 78.0183 12.763 77.701 13.103C77.395 13.443 77.242 13.953 77.242 14.633V19.41H74.488Z" fill="#394149"/>
</svg>
